<svg width="675" height="110" viewBox="0 0 938 152" fill="none" xmlns="http://www.w3.org/2000/svg">
<path d="M0.627502 149H31.5341V101.605H57.5156C91.1346 101.605 110.692 81.548 110.692 52.3544C110.692 23.3036 91.4915 2.81819 58.3008 2.81819H0.627502V149ZM31.5341 76.837V28.086H52.3764C70.2209 28.086 78.8576 37.7933 78.8576 52.3544C78.8576 66.8441 70.2209 76.837 52.5192 76.837H31.5341Z" fill="white"/>
<path d="M130.767 149H229.554V123.518H161.674V88.6144H224.201V63.1325H161.674V28.3001H229.269V2.81819H130.767V149Z" fill="white"/>
<path d="M248.273 28.3001H293.027V149H323.577V28.3001H368.33V2.81819H248.273V28.3001Z" fill="white"/>
<path d="M467.403 44.8597H497.025C496.596 18.8068 475.183 0.819611 442.635 0.819611C410.586 0.819611 387.103 18.5213 387.246 45.0739C387.174 66.63 402.378 78.9783 427.074 84.9027L442.992 88.8999C458.909 92.7543 467.76 97.3225 467.831 107.173C467.76 117.879 457.624 125.16 441.921 125.16C425.861 125.16 414.298 117.737 413.298 103.104H383.391C384.176 134.724 406.803 151.07 442.278 151.07C477.967 151.07 498.952 134.011 499.023 107.244C498.952 82.9041 480.608 69.9847 455.197 64.2745L442.064 61.1339C429.358 58.2074 418.723 53.4965 418.937 43.0039C418.937 33.582 427.289 26.6584 442.421 26.6584C457.196 26.6584 466.261 33.3679 467.403 44.8597Z" fill="white"/>
<path d="M519.812 149H550.719V88.6144H613.46V149H644.295V2.81819H613.46V63.1325H550.719V2.81819H519.812V149Z" fill="white"/>
<path d="M804.11 75.9091C804.11 28.086 774.417 0.819611 735.659 0.819611C696.686 0.819611 667.207 28.086 667.207 75.9091C667.207 123.518 696.686 150.999 735.659 150.999C774.417 150.999 804.11 123.732 804.11 75.9091ZM772.775 75.9091C772.775 106.887 758.071 123.661 735.659 123.661C713.175 123.661 698.542 106.887 698.542 75.9091C698.542 44.9311 713.175 28.1573 735.659 28.1573C758.071 28.1573 772.775 44.9311 772.775 75.9091Z" fill="white"/>
<path d="M827.004 149H857.911V101.605H883.893C917.512 101.605 937.069 81.548 937.069 52.3544C937.069 23.3036 917.868 2.81819 884.678 2.81819H827.004V149ZM857.911 76.837V28.086H878.753C896.598 28.086 905.235 37.7933 905.235 52.3544C905.235 66.8441 896.598 76.837 878.896 76.837H857.911Z" fill="white"/>
</svg>
