<svg width="244" height="74" viewBox="0 0 244 74" fill="none" xmlns="http://www.w3.org/2000/svg">
<path d="M0.940796 41H9.39783V28.0312H16.5072C25.7064 28.0312 31.058 22.543 31.058 14.5547C31.058 6.60547 25.8041 1 16.722 1H0.940796V41ZM9.39783 21.2539V7.91406H15.101C19.9838 7.91406 22.347 10.5703 22.347 14.5547C22.347 18.5195 19.9838 21.2539 15.14 21.2539H9.39783Z" fill="black"/>
<path d="M52.8834 41.5859C60.3052 41.5859 65.3052 37.9727 66.4771 32.4063L58.7818 31.8984C57.942 34.1836 55.7935 35.375 53.0201 35.375C48.8599 35.375 46.2232 32.6211 46.2232 28.1484V28.1289H66.6529V25.8438C66.6529 15.6484 60.481 10.6094 52.5513 10.6094C43.7232 10.6094 38.0006 16.8789 38.0006 26.1367C38.0006 35.6484 43.6451 41.5859 52.8834 41.5859ZM46.2232 22.9727C46.399 19.5547 48.9967 16.8203 52.6881 16.8203C56.3013 16.8203 58.8013 19.3984 58.8209 22.9727H46.2232Z" fill="black"/>
<path d="M91.3396 11H85.6951V3.8125H77.3748V11H73.2732V17.25H77.3748V32.875C77.3357 38.7539 81.3396 41.6641 87.3748 41.4102C89.5232 41.332 91.0467 40.9023 91.8865 40.6289L90.5779 34.4375C90.1677 34.5156 89.2888 34.7109 88.5076 34.7109C86.8474 34.7109 85.6951 34.0859 85.6951 31.7813V17.25H91.3396V11Z" fill="black"/>
<path d="M121.915 12.5039H130.02C129.903 5.375 124.044 0.453125 115.138 0.453125C106.368 0.453125 99.9424 5.29688 99.9814 12.5625C99.9619 18.4609 104.122 21.8398 110.88 23.4609L115.235 24.5547C119.591 25.6094 122.013 26.8594 122.032 29.5547C122.013 32.4844 119.239 34.4766 114.942 34.4766C110.548 34.4766 107.384 32.4453 107.11 28.4414H98.9267C99.1416 37.0938 105.333 41.5664 115.04 41.5664C124.806 41.5664 130.548 36.8984 130.567 29.5742C130.548 22.9141 125.528 19.3789 118.575 17.8164L114.981 16.957C111.505 16.1563 108.595 14.8672 108.653 11.9961C108.653 9.41797 110.938 7.52344 115.079 7.52344C119.122 7.52344 121.603 9.35938 121.915 12.5039Z" fill="black"/>
<path d="M147.72 23.6563C147.739 19.7891 150.103 17.5234 153.501 17.5234C156.88 17.5234 158.872 19.6914 158.853 23.3828V41H167.173V21.8984C167.193 14.8672 163.052 10.6094 156.802 10.6094C152.251 10.6094 149.204 12.7578 147.837 16.293H147.486V1H139.4V41H147.72V23.6563Z" fill="black"/>
<path d="M190.576 41.5859C199.677 41.5859 205.341 35.3555 205.341 26.1172C205.341 16.8203 199.677 10.6094 190.576 10.6094C181.474 10.6094 175.81 16.8203 175.81 26.1172C175.81 35.3555 181.474 41.5859 190.576 41.5859ZM190.615 35.1406C186.415 35.1406 184.267 31.293 184.267 26.0586C184.267 20.8242 186.415 16.957 190.615 16.957C194.736 16.957 196.884 20.8242 196.884 26.0586C196.884 31.293 194.736 35.1406 190.615 35.1406Z" fill="black"/>
<path d="M214.051 52.25H222.372V36.1953H222.626C223.778 38.6953 226.297 41.4883 231.141 41.4883C237.977 41.4883 243.309 36.0781 243.309 26.0391C243.309 15.7266 237.743 10.6094 231.161 10.6094C226.141 10.6094 223.739 13.5977 222.626 16.0391H222.254V11H214.051V52.25ZM222.196 26C222.196 20.6484 224.461 17.2305 228.504 17.2305C232.626 17.2305 234.813 20.8047 234.813 26C234.813 31.2344 232.586 34.8672 228.504 34.8672C224.501 34.8672 222.196 31.3516 222.196 26Z" fill="black"/>
<path d="M29.7988 61.7273C29.7988 57.2315 27.2704 54.2557 23.6482 54.2557C20.0119 54.2557 17.4906 57.2315 17.4906 61.7273C17.4906 66.2159 20.0119 69.1989 23.6482 69.1989C27.2704 69.1989 29.7988 66.223 29.7988 61.7273ZM28.9323 61.7273C28.9323 65.7685 26.7306 68.3466 23.6482 68.3466C20.5374 68.3466 18.3641 65.7543 18.3641 61.7273C18.3641 57.6648 20.5659 55.108 23.6482 55.108C26.7306 55.108 28.9252 57.6861 28.9323 61.7273Z" fill="black"/>
<path d="M38.5879 69H39.4543V61.8409C39.4543 60.0369 40.541 58.7514 42.2668 58.7514C43.9785 58.7514 44.8237 59.9233 44.8237 61.6207V69H45.6901V61.7486C45.6901 60.0085 46.6845 58.7514 48.4884 58.7514C50.1717 58.7514 51.0595 59.8523 51.0595 61.6776V69H51.9259V61.6776C51.9259 59.3693 50.7825 57.9489 48.6731 57.9489C47.0538 57.9489 45.9103 58.7727 45.4842 60.0582H45.406C44.9799 58.7656 44.0211 57.9489 42.4444 57.9489C41.0026 57.9489 39.9373 58.6449 39.5183 59.7386H39.433V58.0909H38.5879V69Z" fill="black"/>
<path d="M59.7757 69.2273C61.9277 69.2273 63.2487 67.9702 63.7459 66.8693L62.9575 66.5497C62.5527 67.3594 61.5513 68.4247 59.7757 68.4247C57.297 68.4247 55.8127 66.4219 55.7771 63.7372H64.101V63.1974C64.101 59.9588 62.0129 57.9276 59.5698 57.9276C56.8638 57.9276 54.9178 60.3352 54.9178 63.5952C54.9178 66.848 56.8141 69.2273 59.7757 69.2273ZM55.7913 62.9489C55.9618 60.5696 57.503 58.7372 59.5698 58.7372C61.6436 58.7372 63.2345 60.5838 63.2345 62.9489H55.7913Z" fill="black"/>
<path d="M67.9504 54.4545H67.084V69H67.9504V54.4545Z" fill="black"/>
<path d="M72.4036 61.9261C72.4036 60.0227 73.7317 58.7514 75.5712 58.7514C77.3894 58.7514 78.5967 59.973 78.5967 61.8409V69H79.4561V61.8054C79.4561 59.4119 77.9362 57.9489 75.7345 57.9489C74.1578 57.9489 73.0002 58.6804 72.4888 59.8168H72.4036V54.4545H71.5371V69H72.4036V61.9261Z" fill="black"/>
<path d="M87.0964 69.2273C89.7953 69.2273 91.7555 66.8551 91.7555 63.581C91.7555 60.3068 89.7882 57.9276 87.0964 57.9276C84.3975 57.9276 82.4373 60.2997 82.4373 63.581C82.4373 66.8551 84.3975 69.2273 87.0964 69.2273ZM87.0964 68.4247C84.8024 68.4247 83.2967 66.2869 83.2967 63.581C83.2967 60.8892 84.8166 58.7372 87.0964 58.7372C89.3833 58.7372 90.8961 60.8821 90.8961 63.581C90.8961 66.2869 89.3904 68.4247 87.0964 68.4247Z" fill="black"/>
<path d="M94.7402 69H95.6067V61.8125C95.6067 60.0511 96.9206 58.7798 98.7388 58.7798C98.9661 58.7798 99.1152 58.8082 99.2289 58.8224V57.9489C99.0939 57.9418 98.9448 57.9418 98.7885 57.9418C97.3467 57.9418 96.1323 58.6804 95.6635 59.7955H95.5854V58.0909H94.7402V69Z" fill="black"/>
<path d="M107.146 73.0909H108.005V66.6207H108.091C108.595 68.0341 109.76 69.2273 111.613 69.2273C114.227 69.2273 115.96 66.8693 115.96 63.5739C115.96 60.2784 114.241 57.9276 111.606 57.9276C109.724 57.9276 108.609 59.1278 108.091 60.527H107.991V58.0909H107.146V73.0909ZM107.998 63.5668C107.998 60.7827 109.312 58.7372 111.542 58.7372C113.794 58.7372 115.101 60.8253 115.101 63.5668C115.101 66.3082 113.773 68.4247 111.542 68.4247C109.334 68.4247 107.998 66.358 107.998 63.5668Z" fill="black"/>
<path d="M121.85 69.2344C123.583 69.2344 124.804 68.2543 125.372 67.0327H125.436V69H126.303V61.3793C126.303 58.9929 124.527 57.9276 122.588 57.9276C120.905 57.9276 119.328 58.6875 118.703 60.2571L119.52 60.5625C119.946 59.483 121.054 58.723 122.61 58.723C124.371 58.723 125.436 59.7386 125.436 61.3224V61.777C125.436 62.6151 124.215 62.7003 122.553 62.8992C119.641 63.2543 118.391 64.1776 118.391 65.9957C118.391 68.0696 119.967 69.2344 121.85 69.2344ZM121.935 68.4318C120.408 68.4318 119.257 67.5156 119.257 66.0241C119.257 64.6747 120.252 63.9503 122.638 63.6662C123.703 63.5455 124.982 63.3466 125.436 62.9702V64.5753C125.436 66.7912 123.98 68.4318 121.935 68.4318Z" fill="black"/>
<path d="M129.936 69H130.802V61.8125C130.802 60.0511 132.116 58.7798 133.934 58.7798C134.161 58.7798 134.311 58.8082 134.424 58.8224V57.9489C134.289 57.9418 134.14 57.9418 133.984 57.9418C132.542 57.9418 131.328 58.6804 130.859 59.7955H130.781V58.0909H129.936V69Z" fill="black"/>
<path d="M139.643 69.2344C141.376 69.2344 142.597 68.2543 143.165 67.0327H143.229V69H144.096V61.3793C144.096 58.9929 142.32 57.9276 140.381 57.9276C138.698 57.9276 137.121 58.6875 136.496 60.2571L137.313 60.5625C137.739 59.483 138.847 58.723 140.402 58.723C142.164 58.723 143.229 59.7386 143.229 61.3224V61.777C143.229 62.6151 142.008 62.7003 140.346 62.8992C137.434 63.2543 136.184 64.1776 136.184 65.9957C136.184 68.0696 137.76 69.2344 139.643 69.2344ZM139.728 68.4318C138.201 68.4318 137.05 67.5156 137.05 66.0241C137.05 64.6747 138.045 63.9503 140.431 63.6662C141.496 63.5455 142.775 63.3466 143.229 62.9702V64.5753C143.229 66.7912 141.773 68.4318 139.728 68.4318Z" fill="black"/>
<path d="M160.285 60.4418C159.76 58.8366 158.609 57.9276 156.763 57.9276C154.675 57.9276 153.176 59.1349 153.176 60.8963C153.176 62.3026 154.064 63.2898 155.846 63.723L157.586 64.1492C158.886 64.4688 159.532 65.1719 159.532 66.1804C159.532 67.5014 158.339 68.4318 156.557 68.4318C154.944 68.4318 153.943 67.679 153.63 66.2514L152.8 66.4645C153.176 68.2401 154.532 69.2273 156.564 69.2273C158.836 69.2273 160.413 67.9631 160.413 66.152C160.413 64.7457 159.532 63.7727 157.814 63.3466L156.138 62.9276C154.717 62.5795 154.035 61.9048 154.035 60.8679C154.035 59.5895 155.157 58.7159 156.763 58.7159C158.254 58.7159 159.085 59.4616 159.483 60.6548L160.285 60.4418Z" fill="black"/>
<path d="M167.666 69.2273C169.818 69.2273 171.139 67.9702 171.637 66.8693L170.848 66.5497C170.443 67.3594 169.442 68.4247 167.666 68.4247C165.188 68.4247 163.703 66.4219 163.668 63.7372H171.992V63.1974C171.992 59.9588 169.904 57.9276 167.46 57.9276C164.754 57.9276 162.808 60.3352 162.808 63.5952C162.808 66.848 164.705 69.2273 167.666 69.2273ZM163.682 62.9489C163.852 60.5696 165.394 58.7372 167.46 58.7372C169.534 58.7372 171.125 60.5838 171.125 62.9489H163.682Z" fill="black"/>
<path d="M181.963 65.1293C181.963 67.0753 180.514 68.2969 178.81 68.2969C177.063 68.2969 175.841 67.0682 175.841 65.25V58.0909H174.975V65.2855C174.975 67.6719 176.494 69.142 178.632 69.142C180.188 69.142 181.381 68.3537 181.892 67.2315H181.963V69H182.83V58.0909H181.963V65.1293Z" fill="black"/>
<path d="M192.009 73.0909H192.869V66.6207H192.954C193.458 68.0341 194.623 69.2273 196.477 69.2273C199.09 69.2273 200.823 66.8693 200.823 63.5739C200.823 60.2784 199.105 57.9276 196.47 57.9276C194.588 57.9276 193.472 59.1278 192.954 60.527H192.855V58.0909H192.009V73.0909ZM192.862 63.5668C192.862 60.7827 194.176 58.7372 196.406 58.7372C198.657 58.7372 199.964 60.8253 199.964 63.5668C199.964 66.3082 198.636 68.4247 196.406 68.4247C194.197 68.4247 192.862 66.358 192.862 63.5668Z" fill="black"/>
<path d="M208.077 69.2273C210.228 69.2273 211.55 67.9702 212.047 66.8693L211.258 66.5497C210.853 67.3594 209.852 68.4247 208.077 68.4247C205.598 68.4247 204.113 66.4219 204.078 63.7372H212.402V63.1974C212.402 59.9588 210.314 57.9276 207.871 57.9276C205.165 57.9276 203.219 60.3352 203.219 63.5952C203.219 66.848 205.115 69.2273 208.077 69.2273ZM204.092 62.9489C204.263 60.5696 205.804 58.7372 207.871 58.7372C209.944 58.7372 211.535 60.5838 211.535 62.9489H204.092Z" fill="black"/>
<path d="M219.241 58.0909H216.947V55.4773H216.088V58.0909H214.476V58.8651H216.088V66.5781C216.088 68.233 217.373 69.1776 218.737 69.1776C219.177 69.1776 219.476 69.0994 219.746 69L219.532 68.2116C219.319 68.2827 219.106 68.3395 218.794 68.3395C217.828 68.3395 216.947 67.7429 216.947 66.4219V58.8651H219.241V58.0909Z" fill="black"/>
<path d="M223.265 69.0923C223.684 69.0923 224.032 68.7514 224.032 68.3253C224.032 67.9063 223.684 67.5582 223.265 67.5582C222.839 67.5582 222.498 67.9063 222.498 68.3253C222.498 68.7514 222.839 69.0923 223.265 69.0923Z" fill="black"/>
</svg>
