<svg width="192" height="143" viewBox="0 0 192 143" fill="none" xmlns="http://www.w3.org/2000/svg">
<path d="M1.33168 76H17.3232V51.4773H30.7663C48.1612 51.4773 58.2805 41.0994 58.2805 25.9943C58.2805 10.9631 48.3459 0.363647 31.1726 0.363647H1.33168V76ZM17.3232 38.6619V13.4375H28.1073C37.3402 13.4375 41.809 18.4602 41.809 25.9943C41.809 33.4915 37.3402 38.6619 28.1811 38.6619H17.3232Z" fill="white"/>
<path d="M68.6676 76H119.781V62.8154H84.6591V44.7557H117.011V31.571H84.6591V13.5483H119.634V0.363647H68.6676V76Z" fill="white"/>
<path d="M129.467 13.5483H152.623V76H168.43V13.5483H191.586V0.363647H129.467V13.5483Z" fill="white"/>
<path d="M28.9128 106.25H39.0815C38.9344 97.3068 31.5836 91.1321 20.4103 91.1321C9.40852 91.1321 1.34708 97.2088 1.39609 106.324C1.37159 113.724 6.59069 117.963 15.0687 119.996L20.5328 121.369C25.9969 122.692 29.0353 124.26 29.0598 127.641C29.0353 131.317 25.5559 133.816 20.1653 133.816C14.6521 133.816 10.6827 131.268 10.3396 126.245H0.072937C0.342469 137.099 8.10987 142.711 20.2878 142.711C32.5392 142.711 39.743 136.854 39.7675 127.666C39.743 119.31 33.4458 114.875 24.7228 112.915L20.2143 111.837C15.8528 110.832 12.2018 109.215 12.2754 105.613C12.2754 102.379 15.1422 100.002 20.3368 100.002C25.4089 100.002 28.5207 102.305 28.9128 106.25Z" fill="white"/>
<path d="M46.904 142H57.5137V121.271H79.0517V142H89.6369V91.8182H79.0517V112.523H57.5137V91.8182H46.904V142Z" fill="white"/>
<path d="M144.499 116.909C144.499 100.492 134.306 91.1321 121.001 91.1321C107.622 91.1321 97.5024 100.492 97.5024 116.909C97.5024 133.252 107.622 142.686 121.001 142.686C134.306 142.686 144.499 133.326 144.499 116.909ZM133.742 116.909C133.742 127.543 128.694 133.301 121.001 133.301C113.282 133.301 108.259 127.543 108.259 116.909C108.259 106.275 113.282 100.517 121.001 100.517C128.694 100.517 133.742 106.275 133.742 116.909Z" fill="white"/>
<path d="M152.358 142H162.968V125.73H171.887C183.428 125.73 190.141 118.845 190.141 108.823C190.141 98.8505 183.55 91.8182 172.156 91.8182H152.358V142ZM162.968 117.228V100.492H170.123C176.248 100.492 179.213 103.825 179.213 108.823C179.213 113.797 176.248 117.228 170.172 117.228H162.968Z" fill="white"/>
</svg>
