<svg width="27" height="24" viewBox="0 0 27 24" fill="none" xmlns="http://www.w3.org/2000/svg">
<mask id="path-1-inside-1" fill="white">
<path d="M10.4022 20.56C10.76 20.56 11.05 20.2197 11.05 19.8C11.05 19.3803 10.76 19.04 10.4022 19.04C10.0445 19.04 9.75449 19.3803 9.75449 19.8C9.75449 20.2197 10.0445 20.56 10.4022 20.56Z"/>
<path d="M17.5276 20.56C17.8853 20.56 18.1754 20.2197 18.1754 19.8C18.1754 19.3803 17.8853 19.04 17.5276 19.04C17.1698 19.04 16.8798 19.3803 16.8798 19.8C16.8798 20.2197 17.1698 20.56 17.5276 20.56Z"/>
<path d="M5.22017 4.6H7.81121L9.5472 14.7764C9.60643 15.1263 9.76868 15.4406 10.0055 15.6643C10.2424 15.888 10.5387 16.0068 10.8427 16H17.1389C17.4429 16.0068 17.7393 15.888 17.9761 15.6643C18.213 15.4406 18.3752 15.1263 18.4345 14.7764L19.4709 8.4H8.45897"/>
<path d="M0 7.68C0 3.43845 3.27542 0 7.31587 0H19.2041C23.2446 0 26.52 3.43845 26.52 7.68V16.32C26.52 20.5615 23.2446 24 19.2041 24H7.31587C3.27543 24 0 20.5615 0 16.32V7.68Z"/>
</mask>
<path d="M5.22017 3.6C4.66789 3.6 4.22017 4.04771 4.22017 4.6C4.22017 5.15228 4.66789 5.6 5.22017 5.6V3.6ZM7.81121 4.6L8.79697 4.43184C8.71501 3.95138 8.2986 3.6 7.81121 3.6V4.6ZM9.5472 14.7764L10.5332 14.6095L10.533 14.6082L9.5472 14.7764ZM10.8427 16V15C10.8352 15 10.8277 15.0001 10.8202 15.0003L10.8427 16ZM17.1389 16L17.1614 15.0003C17.1539 15.0001 17.1464 15 17.1389 15L17.1389 16ZM18.4345 14.7764L19.4204 14.9433L19.4215 14.9368L18.4345 14.7764ZM19.4709 8.4L20.4579 8.56043C20.505 8.27098 20.4226 7.97547 20.2326 7.75209C20.0426 7.52872 19.7641 7.4 19.4709 7.4V8.4ZM8.45897 7.4C7.90668 7.4 7.45897 7.84772 7.45897 8.4C7.45897 8.95228 7.90668 9.4 8.45897 9.4V7.4ZM10.05 19.8C10.05 19.782 10.0559 19.7396 10.0992 19.6887C10.1443 19.6358 10.2481 19.56 10.4022 19.56V21.56C11.4562 21.56 12.05 20.6162 12.05 19.8H10.05ZM10.4022 19.56C10.5564 19.56 10.6602 19.6358 10.7053 19.6887C10.7486 19.7396 10.7545 19.782 10.7545 19.8H8.75449C8.75449 20.6162 9.34831 21.56 10.4022 21.56V19.56ZM10.7545 19.8C10.7545 19.818 10.7486 19.8604 10.7053 19.9113C10.6602 19.9642 10.5564 20.04 10.4022 20.04V18.04C9.34831 18.04 8.75449 18.9838 8.75449 19.8H10.7545ZM10.4022 20.04C10.2481 20.04 10.1443 19.9642 10.0992 19.9113C10.0559 19.8604 10.05 19.818 10.05 19.8H12.05C12.05 18.9838 11.4562 18.04 10.4022 18.04V20.04ZM17.1754 19.8C17.1754 19.782 17.1812 19.7396 17.2246 19.6887C17.2697 19.6358 17.3735 19.56 17.5276 19.56V21.56C18.5815 21.56 19.1754 20.6162 19.1754 19.8H17.1754ZM17.5276 19.56C17.6817 19.56 17.7855 19.6358 17.8306 19.6887C17.874 19.7396 17.8798 19.782 17.8798 19.8H15.8798C15.8798 20.6162 16.4737 21.56 17.5276 21.56V19.56ZM17.8798 19.8C17.8798 19.818 17.874 19.8604 17.8306 19.9113C17.7855 19.9642 17.6817 20.04 17.5276 20.04V18.04C16.4737 18.04 15.8798 18.9838 15.8798 19.8H17.8798ZM17.5276 20.04C17.3735 20.04 17.2697 19.9642 17.2246 19.9113C17.1812 19.8604 17.1754 19.818 17.1754 19.8H19.1754C19.1754 18.9838 18.5815 18.04 17.5276 18.04V20.04ZM5.22017 5.6H7.81121V3.6H5.22017V5.6ZM6.82545 4.76816L8.56144 14.9446L10.533 14.6082L8.79697 4.43184L6.82545 4.76816ZM8.56123 14.9433C8.6533 15.4872 8.90974 16.0049 9.31888 16.3913L10.6922 14.9373C10.6276 14.8763 10.5596 14.7654 10.5332 14.6095L8.56123 14.9433ZM9.31888 16.3913C9.73192 16.7814 10.2781 17.0129 10.8652 16.9997L10.8202 15.0003C10.7993 15.0007 10.7528 14.9946 10.6922 14.9373L9.31888 16.3913ZM10.8427 17H17.1389V15H10.8427V17ZM17.1165 16.9997C17.7035 17.0129 18.2497 16.7814 18.6628 16.3913L17.2895 14.9373C17.2288 14.9946 17.1823 15.0007 17.1614 15.0003L17.1165 16.9997ZM18.6628 16.3913C19.0719 16.0049 19.3284 15.4872 19.4204 14.9433L17.4485 14.6095C17.4221 14.7654 17.354 14.8763 17.2895 14.9373L18.6628 16.3913ZM19.4215 14.9368L20.4579 8.56043L18.4838 8.23957L17.4474 14.616L19.4215 14.9368ZM19.4709 7.4H8.45897V9.4H19.4709V7.4ZM7.31587 1H19.2041V-1H7.31587V1ZM25.52 7.68V16.32H27.52V7.68H25.52ZM19.2041 23H7.31587V25H19.2041V23ZM1 16.32V7.68H-1V16.32H1ZM7.31587 23C3.87293 23 1 20.0556 1 16.32H-1C-1 21.0675 2.67792 25 7.31587 25V23ZM25.52 16.32C25.52 20.0556 22.6471 23 19.2041 23V25C23.8421 25 27.52 21.0675 27.52 16.32H25.52ZM19.2041 1C22.6471 1 25.52 3.94441 25.52 7.68H27.52C27.52 2.9325 23.8421 -1 19.2041 -1V1ZM7.31587 -1C2.67792 -1 -1 2.9325 -1 7.68H1C1 3.94441 3.87293 1 7.31587 1V-1Z" fill="black" mask="url(#path-1-inside-1)"/>
</svg>
