<svg width="28" height="28" viewBox="0 0 28 28" fill="none" xmlns="http://www.w3.org/2000/svg">
<path d="M24.1111 1H3.88889C2.2934 1 1 2.2934 1 3.88889V24.1111C1 25.7066 2.2934 27 3.88889 27H24.1111C25.7066 27 27 25.7066 27 24.1111V3.88889C27 2.2934 25.7066 1 24.1111 1Z" fill="#FF5959"/>
<path d="M9.66667 9.66667L18.3333 18.3333M18.3333 9.66667L9.66667 18.3333M3.88889 1H24.1111C25.7066 1 27 2.2934 27 3.88889V24.1111C27 25.7066 25.7066 27 24.1111 27H3.88889C2.2934 27 1 25.7066 1 24.1111V3.88889C1 2.2934 2.2934 1 3.88889 1Z" stroke="white" stroke-linecap="round" stroke-linejoin="round"/>
</svg>
