<svg width="25" height="26" viewBox="0 0 25 26" fill="none" xmlns="http://www.w3.org/2000/svg">
<path d="M1.59998 5.8L5.19998 1H19.6L23.2 5.8M1.59998 5.8V22.6C1.59998 23.2365 1.85283 23.847 2.30292 24.2971C2.75301 24.7471 3.36346 25 3.99998 25H20.8C21.4365 25 22.0469 24.7471 22.497 24.2971C22.9471 23.847 23.2 23.2365 23.2 22.6V5.8M1.59998 5.8H23.2M17.2 10.6C17.2 11.873 16.6943 13.0939 15.7941 13.9941C14.8939 14.8943 13.673 15.4 12.4 15.4C11.1269 15.4 9.90604 14.8943 9.00586 13.9941C8.10569 13.0939 7.59998 11.873 7.59998 10.6" stroke="black" stroke-width="2" stroke-linecap="round" stroke-linejoin="round"/>
</svg>
